<svg width="141" height="26" viewBox="0 0 141 26" fill="none" xmlns="http://www.w3.org/2000/svg">
<path d="M27.0797 21H29.2597L32.7308 9.59183L36.202 21H38.4032L42.9114 6.18419H40.6679L37.2179 17.7194L33.6833 6.18419H31.7784L28.2438 17.7194L24.815 6.18419H22.5503L27.0797 21ZM47.5346 10.1633C45.0159 10.1633 43.111 11.7295 42.9417 13.8249H44.8466C44.9101 12.7455 45.9895 11.8142 47.4711 11.8142C49.122 11.8142 50.0533 12.7031 50.0533 13.9942C50.0533 14.3752 49.8204 14.6292 49.3336 14.6292H47.1113C44.5926 14.6292 42.9628 15.8991 42.9628 17.9522C42.9628 19.8571 44.4021 21.1693 46.5821 21.1693C48.1907 21.1693 49.5453 20.4074 50.0533 19.2644V21H52.1063V14.1212C52.1063 11.7507 50.2861 10.1633 47.5346 10.1633ZM46.9843 19.5396C45.799 19.5396 44.9947 18.8835 44.9947 17.9098C44.9947 16.7881 45.9048 16.0685 47.3018 16.0685H50.0533V16.3224C50.0533 18.2908 48.9315 19.5396 46.9843 19.5396ZM55.6089 6.98848V10.3326H53.4288V12.1105H55.6089V17.5077C55.6089 19.6877 56.9846 21 59.1435 21H60.8156V19.2221H59.3128C58.2757 19.2221 57.6619 18.5871 57.6619 17.4442V12.1105H60.8156V10.3326H57.6619V6.98848H55.6089ZM66.9959 21.1693C69.705 21.1693 71.6099 19.6454 71.9486 17.4019H69.9167C69.578 18.6083 68.4986 19.3703 67.0382 19.3703C64.9217 19.3703 63.8422 17.7194 63.8422 15.6663C63.8422 13.6133 64.9005 11.9624 67.0382 11.9624C68.4774 11.9624 69.705 12.8513 69.8955 14.0577H71.9486C71.6523 11.6449 69.4934 10.1633 66.9959 10.1633C63.6306 10.1633 61.7045 12.7243 61.7045 15.6663C61.7045 18.6083 63.6306 21.1693 66.9959 21.1693ZM73.999 21H76.052V15.2218C76.052 13.3593 77.2373 12.0047 78.9094 12.0047C80.4121 12.0047 81.4069 13.1476 81.4069 14.8409V21H83.4599V14.4387C83.4599 11.8989 81.8937 10.1633 79.4808 10.1633C77.8934 10.1633 76.6235 10.8829 76.052 12.2163V5.86671H73.999V21ZM86.9436 6.98848V10.3326H84.7636V12.1105H86.9436V17.5077C86.9436 19.6877 88.3194 21 90.4783 21H92.1503V19.2221H90.6476C89.6105 19.2221 88.9967 18.5871 88.9967 17.4442V12.1105H92.1503V10.3326H88.9967V6.98848H86.9436ZM98.5423 21.1693C101.738 21.1693 104.024 18.8623 104.024 15.6663C104.024 12.4703 101.738 10.1633 98.5423 10.1633C95.3463 10.1633 93.0393 12.4703 93.0393 15.6663C93.0393 18.8623 95.3463 21.1693 98.5423 21.1693ZM98.5423 19.3703C96.5104 19.3703 95.1347 17.8463 95.1347 15.6663C95.1347 13.4863 96.5104 11.9624 98.5423 11.9624C100.553 11.9624 101.929 13.4863 101.929 15.6663C101.929 17.8463 100.553 19.3703 98.5423 19.3703ZM108.052 21H109.957L112.37 13.0418L114.804 21H116.709L120.011 10.3326H117.936L115.756 18.2697L113.365 10.3326H111.417L109.005 18.2697L106.803 10.3326H104.75L108.052 21ZM128.97 17.5289C128.673 18.7353 127.657 19.4126 126.091 19.4126C124.229 19.4126 122.916 18.0368 122.747 16.0261H130.896C130.917 15.8356 130.938 15.497 130.938 15.2218C130.938 12.5127 129.181 10.1633 125.879 10.1633C122.599 10.1633 120.736 12.6185 120.736 15.6028C120.736 18.566 122.789 21.1693 126.091 21.1693C128.716 21.1693 130.642 19.7301 131.023 17.5289H128.97ZM125.879 11.8142C127.636 11.8142 128.737 12.8936 128.864 14.5234H122.81C123.128 12.7455 124.207 11.8142 125.879 11.8142ZM139.209 12.1105V10.3326H137.917C136.415 10.3326 135.568 10.9676 135.081 12.3857V10.3326H133.028V21H135.081V16.1743C135.081 13.8461 135.716 12.1105 137.663 12.1105H139.209Z" fill="black"/>
<path fill-rule="evenodd" clip-rule="evenodd" d="M1.92413 3.84839H0V5.77246V8.65866V8.65872H1.76412L0.962402 23.0896H12.5072L11.7055 8.65875H13.469V3.84842H11.5449V5.77246H9.62042V3.84839H7.69629V5.77246H5.77276V3.84839H3.84863V5.77246H1.92447H1.92413V3.84839ZM6.73453 10.5828C6.20319 10.5828 5.77246 11.0135 5.77246 11.5448V13.469H7.69659V11.5448C7.69659 11.0135 7.26586 10.5828 6.73453 10.5828ZM4.81055 19.2413C4.81055 18.1786 5.67201 17.3171 6.73468 17.3171C7.79735 17.3171 8.65881 18.1786 8.65881 19.2413V23.0895H4.81055V19.2413Z" fill="black"/>
</svg>
