<svg id="图层_1" xmlns="http://www.w3.org/2000/svg" width="242.1" height="139.9" viewBox="0 0 242.1 139.9">
  <g id="组_13356" data-name="组 13356">
    <g id="组_13337" data-name="组 13337">
      <g id="组_13332" data-name="组 13332">
        <path id="路径_10905" data-name="路径 10905" d="M120,113.8c-23.8,0-38.6-8.4-44-25a44.876,44.876,0,0,1-2.2-14.2,2.2,2.2,0,0,1,4.4,0,42.29,42.29,0,0,0,2,12.8C85,102.2,98,109.3,120,109.3c21.7,0,35.1-7.4,39.8-21.9a42.29,42.29,0,0,0,2-12.8,2.2,2.2,0,0,1,4.4,0A45.322,45.322,0,0,1,164,88.8C158.6,105.3,143.8,113.8,120,113.8Z" fill="#000001"/>
      </g>
      <g id="组_13333" data-name="组 13333">
        <path id="路径_10906" data-name="路径 10906" d="M80.5,63.8a42.98,42.98,0,0,1-6.1-.5,45.872,45.872,0,0,1-10.2-2.8,2.3,2.3,0,0,1-1.3-2.9,2.218,2.218,0,0,1,2.9-1.3A43.76,43.76,0,0,0,75,58.8c22.1,3.4,34.4-14.9,38.7-23,1.2-2.3,1.8-3.8,1.8-3.8a2.173,2.173,0,0,1,2.9-1.2,2.131,2.131,0,0,1,1.2,2.9c0,.1-.7,1.7-2,4.3C113.3,46.1,101.4,63.8,80.5,63.8Z" fill="#000001"/>
      </g>
      <g id="组_13334" data-name="组 13334">
        <path id="路径_10907" data-name="路径 10907" d="M157.3,64.2c-23.1,0-42.5-24.7-43.4-25.9a2.21,2.21,0,1,1,3.5-2.7c.2.3,23.2,29.5,46.7,23.3a26.423,26.423,0,0,0,6.8-2.8,2.2,2.2,0,1,1,2.2,3.8,34.68,34.68,0,0,1-7.8,3.2A28.523,28.523,0,0,1,157.3,64.2Z" fill="#000001"/>
      </g>
      <g id="组_13335" data-name="组 13335">
        <path id="路径_10908" data-name="路径 10908" d="M76.7,90.4A15.791,15.791,0,0,1,74.3,59a2.178,2.178,0,1,1,.7,4.3A11.423,11.423,0,0,0,76.8,86a3.42,3.42,0,0,0,1.1-.1,2.22,2.22,0,0,1,.6,4.4A12.134,12.134,0,0,1,76.7,90.4Z" fill="#000001"/>
      </g>
      <g id="组_13336" data-name="组 13336">
        <path id="路径_10909" data-name="路径 10909" d="M163.4,90.4a11.562,11.562,0,0,1-1.7-.1,2.22,2.22,0,0,1,.6-4.4c.3,0,.7.1,1.1.1a11.4,11.4,0,0,0,11.4-11.4c0-5.4-4.6-10.4-10.4-11.3a2.178,2.178,0,1,1,.7-4.3c7.9,1.2,14.1,8.1,14.1,15.6A15.834,15.834,0,0,1,163.4,90.4Z" fill="#000001"/>
      </g>
    </g>
    <g id="组_13338" data-name="组 13338">
      <path id="路径_10910" data-name="路径 10910" d="M164,49s-1.6-29.3-43.9-29.3S74,49,74,49s12.3-23.6,46-23.6C152.5,25.4,164,49,164,49Z" fill="#000001"/>
    </g>
    <g id="组_13339" data-name="组 13339">
      <path id="路径_10911" data-name="路径 10911" d="M142.9,21.9s6.4-18.4,23.7-12.2C166.6,9.7,163.3,26,142.9,21.9Z" fill="#000001"/>
    </g>
    <g id="组_13340" data-name="组 13340">
      <path id="路径_10912" data-name="路径 10912" d="M140.1,20.3S126.8,12.5,134.2,0C134.2,0,146.4,5.1,140.1,20.3Z" fill="#000001"/>
    </g>
    <g id="组_13341" data-name="组 13341">
      <path id="路径_10913" data-name="路径 10913" d="M239.9,139.9H2.2a2.2,2.2,0,1,1,0-4.4H239.9a2.22,2.22,0,0,1,2.2,2.2A2.156,2.156,0,0,1,239.9,139.9Z" fill="#000001"/>
    </g>
    <g id="组_13342" data-name="组 13342">
      <path id="路径_10914" data-name="路径 10914" d="M113,132.2a10.608,10.608,0,0,1-7.7-3.3c-4.3-4.3-3.1-10.4-2.4-12.7a2.234,2.234,0,0,1,2.7-1.5,2.189,2.189,0,0,1,1.5,2.7c-.5,1.6-1.3,5.7,1.3,8.4a6.239,6.239,0,0,0,6.9,1.5,4.707,4.707,0,0,0,3-4.6v-2a2.2,2.2,0,1,1,4.4,0v2a8.919,8.919,0,0,1-5.7,8.6A10.034,10.034,0,0,1,113,132.2Z" fill="#000001"/>
    </g>
    <g id="组_13343" data-name="组 13343">
      <path id="路径_10915" data-name="路径 10915" d="M127.8,132.2a10.457,10.457,0,0,1-3.9-.8,9.012,9.012,0,0,1-5.7-8.6v-2a2.2,2.2,0,1,1,4.4,0v2a4.8,4.8,0,0,0,3,4.6,6.611,6.611,0,0,0,6.9-1.5c2.6-2.7,1.8-6.7,1.3-8.4a2.146,2.146,0,0,1,1.5-2.7,2.076,2.076,0,0,1,2.7,1.5c.7,2.4,1.9,8.4-2.4,12.7A11.788,11.788,0,0,1,127.8,132.2Z" fill="#000001"/>
    </g>
    <g id="组_13344" data-name="组 13344">
      <circle id="椭圆_384" data-name="椭圆 384" cx="3.1" cy="3.1" r="3.1" transform="translate(103.5 70.7)" fill="#000001"/>
    </g>
    <g id="组_13345" data-name="组 13345">
      <circle id="椭圆_385" data-name="椭圆 385" cx="3.1" cy="3.1" r="3.1" transform="translate(131.6 70.7)" fill="#000001"/>
    </g>
    <g id="组_13346" data-name="组 13346">
      <path id="路径_10916" data-name="路径 10916" d="M121.2,85.7a6.807,6.807,0,0,1-6.8-6.8,1.3,1.3,0,1,1,2.6,0,4.2,4.2,0,0,0,8.4,0,1.3,1.3,0,1,1,2.6,0A6.872,6.872,0,0,1,121.2,85.7Z" fill="#000001"/>
    </g>
    <g id="组_13347" data-name="组 13347">
      <circle id="椭圆_386" data-name="椭圆 386" cx="8.8" cy="8.8" r="8.8" transform="translate(85.3 77.4)" fill="#6e6e6e"/>
    </g>
    <g id="组_13348" data-name="组 13348">
      <circle id="椭圆_387" data-name="椭圆 387" cx="8.8" cy="8.8" r="8.8" transform="translate(137.8 77.4)" fill="#6e6e6e"/>
    </g>
    <g id="组_13349" data-name="组 13349">
      <path id="路径_10917" data-name="路径 10917" d="M119.7,122.5a35.588,35.588,0,0,1-12.3-2.6c-1.1-.4-2.2-.7-3.1-1l-1.6-.4v-8.3a2.2,2.2,0,1,1,4.4,0v5c.6.2,1.1.4,1.7.6,3.2,1.1,6.8,2.4,10.9,2.4a33.457,33.457,0,0,0,12.7-2.4c.5-.2,1.1-.4,1.6-.6v-5.3a2.2,2.2,0,0,1,4.4,0v8.6l-1.6.4c-.9.3-1.9.6-2.9,1A36.794,36.794,0,0,1,119.7,122.5Z" fill="#000001"/>
    </g>
    <g id="组_13350" data-name="组 13350">
      <path id="路径_10918" data-name="路径 10918" d="M69.3,139.9a2.389,2.389,0,0,1-1.4-.5,2.224,2.224,0,0,1-.4-3.1c12.8-16.1,35.9-21.5,36.8-21.8a2.2,2.2,0,0,1,.9,4.3c-.2.1-22.6,5.4-34.4,20.2A1.464,1.464,0,0,1,69.3,139.9Z" fill="#000001"/>
    </g>
    <g id="组_13351" data-name="组 13351">
      <path id="路径_10919" data-name="路径 10919" d="M172,139.3a2.289,2.289,0,0,1-1.7-.8C158.6,123.6,136,119,135.8,119a2.2,2.2,0,1,1,.9-4.3c1,.2,24.4,5,37.1,21.1a2.138,2.138,0,0,1-.4,3.1A3.255,3.255,0,0,1,172,139.3Z" fill="#000001"/>
    </g>
    <g id="组_13352" data-name="组 13352">
      <path id="路径_10920" data-name="路径 10920" d="M146.6,139.3a2.22,2.22,0,0,1-2.2-2.2V121.3a2.2,2.2,0,0,1,4.4,0v15.8A2.156,2.156,0,0,1,146.6,139.3Z" fill="#000001"/>
    </g>
    <g id="组_13353" data-name="组 13353">
      <path id="路径_10921" data-name="路径 10921" d="M94.1,139.3a2.22,2.22,0,0,1-2.2-2.2V122.2a2.2,2.2,0,1,1,4.4,0v14.9A2.22,2.22,0,0,1,94.1,139.3Z" fill="#000001"/>
    </g>
    <g id="组_13354" data-name="组 13354">
      <path id="路径_10922" data-name="路径 10922" d="M191.9,139.9a2.22,2.22,0,0,1-2.2-2.2,7.8,7.8,0,1,0-15.6,0,2.2,2.2,0,0,1-4.4,0,12.2,12.2,0,1,1,24.4,0A2.22,2.22,0,0,1,191.9,139.9Z" fill="#000001"/>
    </g>
    <g id="组_13355" data-name="组 13355">
      <path id="路径_10923" data-name="路径 10923" d="M70.6,139.9a2.22,2.22,0,0,1-2.2-2.2,7.8,7.8,0,1,0-15.6,0,2.2,2.2,0,0,1-4.4,0,12.2,12.2,0,0,1,24.4,0A2.22,2.22,0,0,1,70.6,139.9Z" fill="#000001"/>
    </g>
  </g>
</svg>
